<?xml version="1.0" encoding="utf-8"?>
<!-- Generator: Adobe Illustrator 28.2.0, SVG Export Plug-In . SVG Version: 6.00 Build 0)  -->
<svg version="1.1" id="Layer_1" xmlns="http://www.w3.org/2000/svg" xmlns:xlink="http://www.w3.org/1999/xlink" x="0px" y="0px"
	 viewBox="0 0 461.88 233.69" style="enable-background:new 0 0 461.88 233.69;" xml:space="preserve">
<style type="text/css">
	.st0{fill:#FFFFFF;}
	.st1{fill:url(#SVGID_1_);}
	.st2{fill:url(#SVGID_00000039118253425990580970000005716629003775990452_);}
	.st3{clip-path:url(#SVGID_00000047771981249239922890000004494843758774863528_);}
	.st4{opacity:0.15;clip-path:url(#SVGID_00000047771981249239922890000004494843758774863528_);}
	.st5{fill:#CB7A08;}
	.st6{fill:#BF7F03;}
	.st7{fill:#D3A43D;}
	.st8{fill:#AD032D;}
	.st9{fill:#D08800;}
	.st10{fill:#AA7402;}
	.st11{fill:#CB7C0A;}
	.st12{fill:#BE8103;}
	.st13{fill:#9F6F0B;}
	.st14{fill:#A66D0A;}
	.st15{fill:#A97502;}
	.st16{fill:#CB7F0A;}
	.st17{fill:#D2AA3C;}
	.st18{fill:#B2831E;}
	.st19{fill:#D07121;}
	.st20{fill:#5D153E;}
	.st21{fill:#D25704;}
	.st22{fill:#D3A704;}
	.st23{fill:#BE8203;}
	.st24{fill:#3E3200;}
	.st25{fill:#C18B31;}
	.st26{fill:#A87502;}
	.st27{fill:#CB810B;}
	.st28{fill:#3D3100;}
	.st29{fill:#BF4A0F;}
	.st30{fill:#D3AD28;}
	.st31{fill:#B3531D;}
	.st32{fill:#861F01;}
	.st33{fill:#B03103;}
	.st34{fill:#D25603;}
	.st35{opacity:0.9;}
	.st36{opacity:0.6;}
	.st37{opacity:0.05;}
	.st38{fill:#B9660C;}
	.st39{opacity:0.07;}
	.st40{fill:#FFD974;}
	.st41{fill:#FF7F00;}
	.st42{fill:#EFBB60;}
	.st43{fill:none;stroke:#EFBB60;stroke-width:18;stroke-linecap:round;stroke-linejoin:round;stroke-miterlimit:10;}
	.st44{fill:#FFFFFF;stroke:#FFFFFF;stroke-width:3;stroke-miterlimit:10;}
	.st45{fill:#2F7708;}
	.st46{fill:#FF7F00;stroke:#FF7F00;stroke-width:58;stroke-miterlimit:10;}
	.st47{fill:#FF7F00;stroke:#FF7F00;stroke-width:19;stroke-miterlimit:10;}
</style>
<g>
	<g>
		<g>
			<path class="st43" d="M75.09,101.99l0.81-3.23l8.08-5.17c-7.01,1.4-13.88,1.67-20.61,0.81c-6.74-0.86-12.8-2.77-18.19-5.74
				c-5.39-2.96-10-6.79-13.82-11.48c-3.83-4.69-6.28-10.11-7.36-16.25c-1.08-6.14-0.7-12.93,1.13-20.37
				c1.18-4.42,3.15-8.59,5.9-12.53c2.75-3.93,5.84-7.19,9.3-9.78c3.45-2.59,7.11-4.45,10.99-5.58c3.88-1.13,7.54-1.4,10.99-0.81
				c3.45,0.59,6.63,2.34,9.54,5.26c2.91,2.91,5.01,6.95,6.3,12.13c-8.73-2.59-15.63-0.75-20.69,5.5
				c-4.31,5.28-5.77,11.43-4.36,18.43c1.51,7.66,6.14,12.88,13.9,15.68c5.17,1.83,11.26,2.21,18.27,1.13
				c3.23-8.95,6.71-16.52,10.43-22.72c3.72-6.2,7.41-10.78,11.08-13.74c3.66-2.96,7.09-4.98,10.27-6.06
				c3.18-1.08,6.33-1.35,9.46-0.81c7.54,1.08,11.21,6.04,10.99,14.87c-0.32,9.16-4.15,18.86-11.48,29.1
				c-7.87,10.67-16.71,17.46-26.52,20.37c-0.65,2.7-1.86,7.9-3.64,15.6c-1.78,7.71-3.23,13.99-4.37,18.83
				c-1.13,4.85-2.53,10.43-4.2,16.73c-1.67,6.3-3.26,11.56-4.77,15.76c7.01,3.23,13.07,5.93,18.19,8.08
				c5.12,2.15,10.75,4.36,16.9,6.63c6.14,2.26,11.56,3.82,16.25,4.69c4.69,0.86,9.35,1.4,13.99,1.62c4.63,0.22,8.78-0.35,12.45-1.7
				c3.66-1.35,6.9-3.42,9.7-6.23c2.48,6.36,3.23,12.72,2.26,19.08c-0.97,6.36-3.56,11.64-7.76,15.84c-2.8,2.8-5.88,4.93-9.22,6.39
				c-3.34,1.46-6.77,2.16-10.27,2.1c-3.5-0.06-7.03-0.46-10.59-1.21c-3.56-0.76-7.25-2.08-11.08-3.96
				c-3.83-1.89-7.44-3.83-10.83-5.82c-3.4-1.99-6.95-4.34-10.67-7.03c-3.72-2.7-6.98-5.15-9.78-7.36c-2.8-2.21-5.85-4.58-9.14-7.11
				c-3.29-2.53-5.9-4.45-7.84-5.74c-9.27,14.87-19.56,21.34-30.88,19.4c-7.66-1.4-14.01-6.09-19.08-14.07
				c-5.07-7.87-6.68-15.36-4.85-22.47c2.05-8.3,8.46-12.66,19.24-13.1c5.6-0.22,12.18,0.81,19.72,3.07c0.75-1.4,1.51-2.96,2.26-4.69
				c0.75-1.72,1.43-3.42,2.02-5.09c0.59-1.67,1.29-3.64,2.1-5.9c0.81-2.26,1.48-4.28,2.02-6.06c0.54-1.78,1.19-3.93,1.94-6.47
				c0.75-2.53,1.37-4.61,1.86-6.22c0.48-1.62,1.1-3.77,1.86-6.47C74.07,105.44,74.66,103.39,75.09,101.99z"/>
			<path class="st43" d="M161.95,113.98c0.11-0.54,0.21-1,0.32-1.37c0.11-0.38,0.21-0.73,0.32-1.05c0.11-0.32,0.24-0.57,0.4-0.73
				s0.29-0.35,0.4-0.57c0.11-0.22,0.32-0.35,0.65-0.4c0.32-0.05,0.57-0.11,0.73-0.16c0.16-0.05,0.48-0.08,0.97-0.08s0.86,0,1.13,0
				c0.27,0,0.78,0,1.54,0c0.75,0,1.4,0,1.94,0c-1.19,4.74-2.7,11.1-4.53,19.08c-1.29,5.28-3.21,9.73-5.74,13.34
				c-2.53,3.61-5.28,6.06-8.25,7.36c-2.96,1.29-5.93,1.86-8.89,1.7c-2.96-0.16-5.61-1.13-7.92-2.91c-2.32-1.78-3.96-4.07-4.93-6.87
				c-5.39,6.25-11.32,9.38-17.78,9.38c-7.76,0-12.56-4.2-14.39-12.61c-1.83-8.41-0.48-17.68,4.04-27.81
				c4.63-10.02,10.67-16.33,18.11-18.92c2.16-0.75,4.26-1.13,6.31-1.13c5.28,0,9.27,2.1,11.96,6.31c1.83-3.99,4.61-6.31,8.33-6.95
				c3.72-0.65,7.84,0,12.37,1.94c-0.76,3.45-2.08,9.16-3.96,17.14c-1.89,7.98-3.37,14.23-4.45,18.75
				c-1.83,7.87-1.56,11.75,0.81,11.64c1.72-0.11,3.56-2.1,5.5-5.98c0.75-1.62,1.35-3.34,1.78-5.17
				C159.36,124.65,160.43,120.02,161.95,113.98z M121.85,135.81c2.59,0,5.39-3.88,8.41-11.64c3.45-8.73,4.63-15.41,3.56-20.05
				c-0.54-1.83-1.51-2.8-2.91-2.91c-3.34,0-6.36,4.26-9.05,12.77c-2.7,8.3-3.5,14.71-2.43,19.24
				C119.85,134.95,120.66,135.81,121.85,135.81z"/>
			<path class="st43" d="M165.83,97.98c-2.48-1.4-4.12-3.02-4.93-4.85c-0.81-1.83-0.92-3.56-0.32-5.17
				c0.59-1.62,1.59-3.07,2.99-4.36c1.29-1.08,2.69-1.7,4.2-1.86c1.51-0.16,2.88,0.14,4.12,0.89c1.24,0.76,2.15,1.92,2.75,3.48
				c0.59,1.56,0.57,3.64-0.08,6.23c-1.19,0-2.59-0.22-4.2-0.65c0.86,0.86,2.1,1.35,3.72,1.46c1.62,0.11,3.12-0.03,4.53-0.4
				c1.4-0.38,3.02-0.86,4.85-1.45c1.83-0.59,3.02-1,3.56-1.21c5.39-1.08,10.02,0.19,13.9,3.8c3.88,3.61,5.33,8.43,4.36,14.47
				c-0.22,1.83-0.59,3.86-1.13,6.06c-0.54,2.21-1.13,4.64-1.78,7.28c-0.65,2.64-1.13,4.66-1.45,6.06
				c-1.83,7.98-1.62,11.91,0.65,11.8c1.72-0.11,3.56-2.1,5.5-5.98c0.75-1.72,1.35-3.45,1.78-5.17c0.32-1.29,0.83-3.53,1.54-6.71
				c0.7-3.18,1.27-5.63,1.7-7.36c0.11-0.54,0.21-0.97,0.32-1.29c0.11-0.32,0.21-0.65,0.32-0.97c0.11-0.32,0.24-0.59,0.4-0.81
				c0.16-0.22,0.3-0.4,0.4-0.57c0.11-0.16,0.32-0.27,0.65-0.32c0.32-0.05,0.57-0.11,0.73-0.16c0.16-0.05,0.48-0.11,0.97-0.16
				c0.48-0.05,0.86-0.08,1.13-0.08c0.27,0,0.78,0.03,1.54,0.08c0.75,0.06,1.4,0.08,1.94,0.08c-1.83,7.76-3.34,14.12-4.53,19.08
				c-2.59,11.21-7.76,18.32-15.52,21.34c-5.82,2.15-11.05,1.4-15.68-2.26c-4.96-3.99-6.58-9.59-4.85-16.81
				c3.13-13.26,4.85-21.61,5.17-25.06c0.43-2.91,0.19-4.77-0.73-5.58c-0.92-0.81-2.37-1-4.36-0.57c-2,0.43-4.45,0.43-7.36,0
				c-1.51,6.04-2.75,10.99-3.72,14.87c-0.76,3.45-1.35,6.09-1.78,7.92c-0.43,1.62-1.43,2.83-2.99,3.64
				c-1.56,0.81-3.31,0.94-5.25,0.4c1.62-7.22,2.48-10.94,2.59-11.16C162.54,111.29,163.99,105.31,165.83,97.98z"/>
			<path class="st43" d="M248.93,110.1c-0.54,2.26-1.32,5.52-2.34,9.78c-1.03,4.26-1.75,7.36-2.18,9.3
				c-2.59,11.21-7.76,18.32-15.52,21.34c-5.82,2.15-11.05,1.4-15.68-2.26c-4.96-3.99-6.57-9.59-4.85-16.81
				c0.54-2.69,1.24-5.79,2.1-9.3c0.86-3.5,1.7-7.01,2.51-10.51c0.81-3.5,1.48-6.6,2.02-9.3c1.08-4.42,2.72-7.65,4.93-9.7
				c2.21-2.05,4.79-2.99,7.76-2.83c2.96,0.16,6.28,0.84,9.94,2.02c-1.4,5.93-4.15,17.89-8.25,35.89c-1.94,7.87-1.73,11.8,0.65,11.8
				c1.72-0.11,3.56-2.1,5.5-5.98c0.75-1.72,1.35-3.45,1.78-5.17c1.62-7.01,2.69-11.69,3.23-14.07c0.11-0.54,0.22-1,0.32-1.37
				c0.11-0.38,0.24-0.75,0.4-1.13c0.16-0.38,0.3-0.65,0.4-0.81c0.11-0.16,0.32-0.32,0.65-0.48c0.32-0.16,0.54-0.27,0.65-0.32
				c0.11-0.05,0.43-0.11,0.97-0.16c0.54-0.05,0.94-0.08,1.21-0.08c0.27,0,0.83,0.03,1.7,0.08
				C247.69,110.08,248.39,110.1,248.93,110.1z M230.33,68.71c2.59-0.75,5.01-0.59,7.28,0.48c2.26,1.08,3.74,2.78,4.45,5.09
				c0.7,2.32,0.38,4.56-0.97,6.71c-1.35,2.16-3.26,3.61-5.74,4.37c-1.83,0.43-3.53,0.51-5.09,0.24c-1.56-0.27-2.97-0.94-4.2-2.02
				c-1.24-1.08-2.08-2.37-2.51-3.88c-0.65-2.26-0.3-4.47,1.05-6.63C225.94,70.92,227.85,69.47,230.33,68.71z"/>
			<path class="st43" d="M291.61,128.54c-2.59,6.9-6.85,12.4-12.77,16.49c-5.93,4.1-12.88,6.2-20.86,6.31
				c-6.47,0.11-11.53-1.67-15.2-5.34c-3.67-3.66-5.66-8.16-5.98-13.5c-0.32-5.33,0.54-10.94,2.59-16.81
				c2.05-5.87,5.07-10.97,9.05-15.28c4.31-4.63,8.54-7.7,12.69-9.22c4.15-1.51,7.62-1.64,10.43-0.4c2.8,1.24,5.09,3.15,6.87,5.74
				c1.78,2.59,2.72,5.39,2.83,8.41c0.11,2.59-0.38,4.8-1.45,6.63c-1.08,1.83-2.37,2.97-3.88,3.39c-1.51,0.43-3.13,0.11-4.85-0.97
				c1.51-1.08,2.1-3.39,1.78-6.95c-0.11-3.45-1.13-5.01-3.07-4.69c-1.08,0.11-2.34,0.94-3.8,2.51c-1.46,1.56-2.62,3.31-3.48,5.25
				c-5.17,10.99-5.88,19.08-2.1,24.25c2.59,3.77,6.41,4.64,11.48,2.59c4.2-1.72,7.98-5.23,11.32-10.51
				c2.15-3.34,3.77-7.38,4.85-12.13c0.54-2.16,1.1-3.42,1.7-3.8c0.59-0.38,2.13-0.57,4.61-0.57c0.86,0.11,1.56,0.16,2.1,0.16
				C294.08,119.91,292.47,126.06,291.61,128.54z"/>
			<path class="st43" d="M340.27,105.09c-0.76,1.51-2.21,3.34-4.36,5.5c-1.08-2.8-3.88-4.66-8.41-5.58
				c-4.53-0.91-8.95-0.81-13.26,0.32c-4.31,1.13-6.74,2.83-7.28,5.09c-0.22,1.19,0.13,2.08,1.05,2.67c0.91,0.59,2.29,0.94,4.12,1.05
				c1.83,0.11,3.72,0.14,5.66,0.08c1.94-0.05,4.01,0,6.22,0.16c2.21,0.16,3.96,0.57,5.25,1.21c2.26,0.97,3.88,2.08,4.85,3.31
				c0.97,1.24,1.35,2.99,1.13,5.25c0,2.8,0.81,4.15,2.42,4.04c1.94-0.21,3.61-1.78,5.01-4.69l0.97-2.59
				c0.22-1.08,0.38-1.86,0.48-2.34c0.11-0.48,0.16-0.78,0.16-0.89c0-0.11,0.08-0.43,0.24-0.97c0.16-0.54,0.35-1.35,0.57-2.42
				c0.11-0.54,0.21-0.97,0.32-1.29c0.11-0.32,0.21-0.65,0.32-0.97c0.11-0.32,0.24-0.59,0.4-0.81c0.16-0.22,0.3-0.4,0.4-0.57
				c0.11-0.16,0.32-0.27,0.65-0.32c0.32-0.05,0.57-0.11,0.73-0.16c0.16-0.05,0.48-0.11,0.97-0.16c0.48-0.05,0.86-0.08,1.13-0.08
				c0.27,0,0.78,0.03,1.54,0.08c0.75,0.06,1.4,0.08,1.94,0.08c-0.32,1.29-0.62,2.45-0.89,3.48c-0.27,1.03-0.46,1.78-0.57,2.26
				c-0.11,0.48-0.27,1.21-0.48,2.18c-0.22,0.97-0.48,2.21-0.81,3.72c-1.4,5.5-3.88,9.49-7.44,11.96c-2.26,1.83-4.85,2.64-7.76,2.42
				c-2.91-0.21-5.12-1.62-6.63-4.2c0.65,2.37,1.29,3.94,1.94,4.69c-1.94,2.59-3.42,4.47-4.45,5.66c-1.03,1.19-2.83,2.67-5.42,4.45
				c-2.59,1.78-5.61,3.26-9.05,4.45c-7.44,2.59-12.85,2.24-16.25-1.05c-3.4-3.29-4.28-7.44-2.67-12.45s4.9-8.33,9.86-9.94
				c0.32,2.26,1.37,3.91,3.15,4.93c1.78,1.03,3.64,1.4,5.58,1.13c1.94-0.27,3.74-0.97,5.42-2.1c1.67-1.13,2.72-2.51,3.15-4.12
				c0.32-1.51-0.08-2.53-1.21-3.07c-1.13-0.54-2.8-0.78-5.01-0.73c-2.21,0.06-4.58,0.14-7.11,0.24c-2.53,0.11-5.2-0.11-8-0.65
				c-2.8-0.54-5.12-1.51-6.95-2.91c-2.8-2.26-4.02-5.01-3.64-8.25c0.38-3.23,1.75-6.44,4.12-9.62c2.37-3.18,5.23-5.9,8.57-8.16
				c8.19-5.28,16.87-7.76,26.03-7.44c8.19,0.32,13.04,3.02,14.55,8.08C342.32,97.98,341.89,101.32,340.27,105.09z"/>
		</g>
		<path class="st42" d="M365.85,74.12c0,0,21.42-24.97,56.81-40.24c8.67-3.74,16.25-5.76,21.32-6.88
			c-5.33,9.13-13.65,21.09-26.17,32.84c-15.53,14.56-31.23,22.89-42.07,27.58c9.42,0.01,21.37,0.88,34.84,4
			c15.58,3.61,28.14,9.07,37.28,13.88c-9.02,2.51-21.91,5.07-37.48,4.82c-15.2-0.24-27.73-3.07-36.56-5.77
			c5.49,5.44,12.02,12.9,18.16,22.6c6.25,9.87,10.23,19.12,12.8,26.5c-5.5-2.6-11.88-6.19-18.47-11.16
			c-11.45-8.63-19.12-18.09-23.99-25.27c0.44,3.57,0.87,7.13,1.31,10.7c-0.19,3.3-0.38,6.6-0.56,9.9
			c-3.01-4.12-7.1-10.76-9.62-19.75c-1.92-6.86-2.32-12.9-2.26-17.34c-6.06,6.67-12.06,10.98-16.39,13.65
			c-6.49,4-13.3,8.06-22.17,7.49c-2.05-0.13-3.73-0.48-4.87-0.77c0.04-1.33,0.09-2.65,0.13-3.98c2.1,0.38,5.25,0.72,8.97,0.17
			c3.1-0.46,6.93-1.6,13.7-6.08c4.3-2.85,10.25-7.35,16.47-14.14c-3.57-1.19-7.95-3.04-12.55-5.98
			c-8.03-5.14-13.11-11.3-16.03-15.52c2.39,0.24,5.9,0.8,9.88,2.31c5.06,1.91,7.62,4.11,8.18,3.54c1.04-1.06-6.51-9.71-10.18-14.6
			c-6.14-8.16-13.12-21.31-15.5-42.66c7.62,6.05,17.01,14.84,25.71,27.04c5.31,7.45,9.25,14.62,12.19,20.91
			c0.15-8.44,1.13-18.91,4.08-30.58C357.4,23.12,364.99,9.21,371.06,0c2.25,10.65,4.2,26.37,0.95,44.61
			C368.97,61.65,365.85,74.12,365.85,74.12z"/>
		<g>
			<path class="st44" d="M75.09,101.99l0.81-3.23l8.08-5.17c-7.01,1.4-13.88,1.67-20.61,0.81c-6.74-0.86-12.8-2.77-18.19-5.74
				c-5.39-2.96-10-6.79-13.82-11.48c-3.83-4.69-6.28-10.11-7.36-16.25c-1.08-6.14-0.7-12.93,1.13-20.37
				c1.18-4.42,3.15-8.59,5.9-12.53c2.75-3.93,5.84-7.19,9.3-9.78c3.45-2.59,7.11-4.45,10.99-5.58c3.88-1.13,7.54-1.4,10.99-0.81
				c3.45,0.59,6.63,2.34,9.54,5.26c2.91,2.91,5.01,6.95,6.3,12.13c-8.73-2.59-15.63-0.75-20.69,5.5
				c-4.31,5.28-5.77,11.43-4.36,18.43c1.51,7.66,6.14,12.88,13.9,15.68c5.17,1.83,11.26,2.21,18.27,1.13
				c3.23-8.95,6.71-16.52,10.43-22.72c3.72-6.2,7.41-10.78,11.08-13.74c3.66-2.96,7.09-4.98,10.27-6.06
				c3.18-1.08,6.33-1.35,9.46-0.81c7.54,1.08,11.21,6.04,10.99,14.87c-0.32,9.16-4.15,18.86-11.48,29.1
				c-7.87,10.67-16.71,17.46-26.52,20.37c-0.65,2.7-1.86,7.9-3.64,15.6c-1.78,7.71-3.23,13.99-4.37,18.83
				c-1.13,4.85-2.53,10.43-4.2,16.73c-1.67,6.3-3.26,11.56-4.77,15.76c7.01,3.23,13.07,5.93,18.19,8.08
				c5.12,2.15,10.75,4.36,16.9,6.63c6.14,2.26,11.56,3.82,16.25,4.69c4.69,0.86,9.35,1.4,13.99,1.62c4.63,0.22,8.78-0.35,12.45-1.7
				c3.66-1.35,6.9-3.42,9.7-6.23c2.48,6.36,3.23,12.72,2.26,19.08c-0.97,6.36-3.56,11.64-7.76,15.84c-2.8,2.8-5.88,4.93-9.22,6.39
				c-3.34,1.46-6.77,2.16-10.27,2.1c-3.5-0.06-7.03-0.46-10.59-1.21c-3.56-0.76-7.25-2.08-11.08-3.96
				c-3.83-1.89-7.44-3.83-10.83-5.82c-3.4-1.99-6.95-4.34-10.67-7.03c-3.72-2.7-6.98-5.15-9.78-7.36c-2.8-2.21-5.85-4.58-9.14-7.11
				c-3.29-2.53-5.9-4.45-7.84-5.74c-9.27,14.87-19.56,21.34-30.88,19.4c-7.66-1.4-14.01-6.09-19.08-14.07
				c-5.07-7.87-6.68-15.36-4.85-22.47c2.05-8.3,8.46-12.66,19.24-13.1c5.6-0.22,12.18,0.81,19.72,3.07c0.75-1.4,1.51-2.96,2.26-4.69
				c0.75-1.72,1.43-3.42,2.02-5.09c0.59-1.67,1.29-3.64,2.1-5.9c0.81-2.26,1.48-4.28,2.02-6.06c0.54-1.78,1.19-3.93,1.94-6.47
				c0.75-2.53,1.37-4.61,1.86-6.22c0.48-1.62,1.1-3.77,1.86-6.47C74.07,105.44,74.66,103.39,75.09,101.99z"/>
			<path class="st44" d="M161.95,113.98c0.11-0.54,0.21-1,0.32-1.37c0.11-0.38,0.21-0.73,0.32-1.05c0.11-0.32,0.24-0.57,0.4-0.73
				s0.29-0.35,0.4-0.57c0.11-0.22,0.32-0.35,0.65-0.4c0.32-0.05,0.57-0.11,0.73-0.16c0.16-0.05,0.48-0.08,0.97-0.08s0.86,0,1.13,0
				c0.27,0,0.78,0,1.54,0c0.75,0,1.4,0,1.94,0c-1.19,4.74-2.7,11.1-4.53,19.08c-1.29,5.28-3.21,9.73-5.74,13.34
				c-2.53,3.61-5.28,6.06-8.25,7.36c-2.96,1.29-5.93,1.86-8.89,1.7c-2.96-0.16-5.61-1.13-7.92-2.91c-2.32-1.78-3.96-4.07-4.93-6.87
				c-5.39,6.25-11.32,9.38-17.78,9.38c-7.76,0-12.56-4.2-14.39-12.61c-1.83-8.41-0.48-17.68,4.04-27.81
				c4.63-10.02,10.67-16.33,18.11-18.92c2.16-0.75,4.26-1.13,6.31-1.13c5.28,0,9.27,2.1,11.96,6.31c1.83-3.99,4.61-6.31,8.33-6.95
				c3.72-0.65,7.84,0,12.37,1.94c-0.76,3.45-2.08,9.16-3.96,17.14c-1.89,7.98-3.37,14.23-4.45,18.75
				c-1.83,7.87-1.56,11.75,0.81,11.64c1.72-0.11,3.56-2.1,5.5-5.98c0.75-1.62,1.35-3.34,1.78-5.17
				C159.36,124.65,160.43,120.02,161.95,113.98z M121.85,135.81c2.59,0,5.39-3.88,8.41-11.64c3.45-8.73,4.63-15.41,3.56-20.05
				c-0.54-1.83-1.51-2.8-2.91-2.91c-3.34,0-6.36,4.26-9.05,12.77c-2.7,8.3-3.5,14.71-2.43,19.24
				C119.85,134.95,120.66,135.81,121.85,135.81z"/>
			<path class="st44" d="M165.83,97.98c-2.48-1.4-4.12-3.02-4.93-4.85c-0.81-1.83-0.92-3.56-0.32-5.17
				c0.59-1.62,1.59-3.07,2.99-4.36c1.29-1.08,2.69-1.7,4.2-1.86c1.51-0.16,2.88,0.14,4.12,0.89c1.24,0.76,2.15,1.92,2.75,3.48
				c0.59,1.56,0.57,3.64-0.08,6.23c-1.19,0-2.59-0.22-4.2-0.65c0.86,0.86,2.1,1.35,3.72,1.46c1.62,0.11,3.12-0.03,4.53-0.4
				c1.4-0.38,3.02-0.86,4.85-1.45c1.83-0.59,3.02-1,3.56-1.21c5.39-1.08,10.02,0.19,13.9,3.8c3.88,3.61,5.33,8.43,4.36,14.47
				c-0.22,1.83-0.59,3.86-1.13,6.06c-0.54,2.21-1.13,4.64-1.78,7.28c-0.65,2.64-1.13,4.66-1.45,6.06
				c-1.83,7.98-1.62,11.91,0.65,11.8c1.72-0.11,3.56-2.1,5.5-5.98c0.75-1.72,1.35-3.45,1.78-5.17c0.32-1.29,0.83-3.53,1.54-6.71
				c0.7-3.18,1.27-5.63,1.7-7.36c0.11-0.54,0.21-0.97,0.32-1.29c0.11-0.32,0.21-0.65,0.32-0.97c0.11-0.32,0.24-0.59,0.4-0.81
				c0.16-0.22,0.3-0.4,0.4-0.57c0.11-0.16,0.32-0.27,0.65-0.32c0.32-0.05,0.57-0.11,0.73-0.16c0.16-0.05,0.48-0.11,0.97-0.16
				c0.48-0.05,0.86-0.08,1.13-0.08c0.27,0,0.78,0.03,1.54,0.08c0.75,0.06,1.4,0.08,1.94,0.08c-1.83,7.76-3.34,14.12-4.53,19.08
				c-2.59,11.21-7.76,18.32-15.52,21.34c-5.82,2.15-11.05,1.4-15.68-2.26c-4.96-3.99-6.58-9.59-4.85-16.81
				c3.13-13.26,4.85-21.61,5.17-25.06c0.43-2.91,0.19-4.77-0.73-5.58c-0.92-0.81-2.37-1-4.36-0.57c-2,0.43-4.45,0.43-7.36,0
				c-1.51,6.04-2.75,10.99-3.72,14.87c-0.76,3.45-1.35,6.09-1.78,7.92c-0.43,1.62-1.43,2.83-2.99,3.64
				c-1.56,0.81-3.31,0.94-5.25,0.4c1.62-7.22,2.48-10.94,2.59-11.16C162.54,111.29,163.99,105.31,165.83,97.98z"/>
			<path class="st44" d="M248.93,110.1c-0.54,2.26-1.32,5.52-2.34,9.78c-1.03,4.26-1.75,7.36-2.18,9.3
				c-2.59,11.21-7.76,18.32-15.52,21.34c-5.82,2.15-11.05,1.4-15.68-2.26c-4.96-3.99-6.57-9.59-4.85-16.81
				c0.54-2.69,1.24-5.79,2.1-9.3c0.86-3.5,1.7-7.01,2.51-10.51c0.81-3.5,1.48-6.6,2.02-9.3c1.08-4.42,2.72-7.65,4.93-9.7
				c2.21-2.05,4.79-2.99,7.76-2.83c2.96,0.16,6.28,0.84,9.94,2.02c-1.4,5.93-4.15,17.89-8.25,35.89c-1.94,7.87-1.73,11.8,0.65,11.8
				c1.72-0.11,3.56-2.1,5.5-5.98c0.75-1.72,1.35-3.45,1.78-5.17c1.62-7.01,2.69-11.69,3.23-14.07c0.11-0.54,0.22-1,0.32-1.37
				c0.11-0.38,0.24-0.75,0.4-1.13c0.16-0.38,0.3-0.65,0.4-0.81c0.11-0.16,0.32-0.32,0.65-0.48c0.32-0.16,0.54-0.27,0.65-0.32
				c0.11-0.05,0.43-0.11,0.97-0.16c0.54-0.05,0.94-0.08,1.21-0.08c0.27,0,0.83,0.03,1.7,0.08
				C247.69,110.08,248.39,110.1,248.93,110.1z M230.33,68.71c2.59-0.75,5.01-0.59,7.28,0.48c2.26,1.08,3.74,2.78,4.45,5.09
				c0.7,2.32,0.38,4.56-0.97,6.71c-1.35,2.16-3.26,3.61-5.74,4.37c-1.83,0.43-3.53,0.51-5.09,0.24c-1.56-0.27-2.97-0.94-4.2-2.02
				c-1.24-1.08-2.08-2.37-2.51-3.88c-0.65-2.26-0.3-4.47,1.05-6.63C225.94,70.92,227.85,69.47,230.33,68.71z"/>
			<path class="st44" d="M291.61,128.54c-2.59,6.9-6.85,12.4-12.77,16.49c-5.93,4.1-12.88,6.2-20.86,6.31
				c-6.47,0.11-11.53-1.67-15.2-5.34c-3.67-3.66-5.66-8.16-5.98-13.5c-0.32-5.33,0.54-10.94,2.59-16.81
				c2.05-5.87,5.07-10.97,9.05-15.28c4.31-4.63,8.54-7.7,12.69-9.22c4.15-1.51,7.62-1.64,10.43-0.4c2.8,1.24,5.09,3.15,6.87,5.74
				c1.78,2.59,2.72,5.39,2.83,8.41c0.11,2.59-0.38,4.8-1.45,6.63c-1.08,1.83-2.37,2.97-3.88,3.39c-1.51,0.43-3.13,0.11-4.85-0.97
				c1.51-1.08,2.1-3.39,1.78-6.95c-0.11-3.45-1.13-5.01-3.07-4.69c-1.08,0.11-2.34,0.94-3.8,2.51c-1.46,1.56-2.62,3.31-3.48,5.25
				c-5.17,10.99-5.88,19.08-2.1,24.25c2.59,3.77,6.41,4.64,11.48,2.59c4.2-1.72,7.98-5.23,11.32-10.51
				c2.15-3.34,3.77-7.38,4.85-12.13c0.54-2.16,1.1-3.42,1.7-3.8c0.59-0.38,2.13-0.57,4.61-0.57c0.86,0.11,1.56,0.16,2.1,0.16
				C294.08,119.91,292.47,126.06,291.61,128.54z"/>
			<path class="st44" d="M340.27,105.09c-0.76,1.51-2.21,3.34-4.36,5.5c-1.08-2.8-3.88-4.66-8.41-5.58
				c-4.53-0.91-8.95-0.81-13.26,0.32c-4.31,1.13-6.74,2.83-7.28,5.09c-0.22,1.19,0.13,2.08,1.05,2.67c0.91,0.59,2.29,0.94,4.12,1.05
				c1.83,0.11,3.72,0.14,5.66,0.08c1.94-0.05,4.01,0,6.22,0.16c2.21,0.16,3.96,0.57,5.25,1.21c2.26,0.97,3.88,2.08,4.85,3.31
				c0.97,1.24,1.35,2.99,1.13,5.25c0,2.8,0.81,4.15,2.42,4.04c1.94-0.21,3.61-1.78,5.01-4.69l0.97-2.59
				c0.22-1.08,0.38-1.86,0.48-2.34c0.11-0.48,0.16-0.78,0.16-0.89c0-0.11,0.08-0.43,0.24-0.97c0.16-0.54,0.35-1.35,0.57-2.42
				c0.11-0.54,0.21-0.97,0.32-1.29c0.11-0.32,0.21-0.65,0.32-0.97c0.11-0.32,0.24-0.59,0.4-0.81c0.16-0.22,0.3-0.4,0.4-0.57
				c0.11-0.16,0.32-0.27,0.65-0.32c0.32-0.05,0.57-0.11,0.73-0.16c0.16-0.05,0.48-0.11,0.97-0.16c0.48-0.05,0.86-0.08,1.13-0.08
				c0.27,0,0.78,0.03,1.54,0.08c0.75,0.06,1.4,0.08,1.94,0.08c-0.32,1.29-0.62,2.45-0.89,3.48c-0.27,1.03-0.46,1.78-0.57,2.26
				c-0.11,0.48-0.27,1.21-0.48,2.18c-0.22,0.97-0.48,2.21-0.81,3.72c-1.4,5.5-3.88,9.49-7.44,11.96c-2.26,1.83-4.85,2.64-7.76,2.42
				c-2.91-0.21-5.12-1.62-6.63-4.2c0.65,2.37,1.29,3.94,1.94,4.69c-1.94,2.59-3.42,4.47-4.45,5.66c-1.03,1.19-2.83,2.67-5.42,4.45
				c-2.59,1.78-5.61,3.26-9.05,4.45c-7.44,2.59-12.85,2.24-16.25-1.05c-3.4-3.29-4.28-7.44-2.67-12.45s4.9-8.33,9.86-9.94
				c0.32,2.26,1.37,3.91,3.15,4.93c1.78,1.03,3.64,1.4,5.58,1.13c1.94-0.27,3.74-0.97,5.42-2.1c1.67-1.13,2.72-2.51,3.15-4.12
				c0.32-1.51-0.08-2.53-1.21-3.07c-1.13-0.54-2.8-0.78-5.01-0.73c-2.21,0.06-4.58,0.14-7.11,0.24c-2.53,0.11-5.2-0.11-8-0.65
				c-2.8-0.54-5.12-1.51-6.95-2.91c-2.8-2.26-4.02-5.01-3.64-8.25c0.38-3.23,1.75-6.44,4.12-9.62c2.37-3.18,5.23-5.9,8.57-8.16
				c8.19-5.28,16.87-7.76,26.03-7.44c8.19,0.32,13.04,3.02,14.55,8.08C342.32,97.98,341.89,101.32,340.27,105.09z"/>
		</g>
		<g>
			<path class="st45" d="M75.09,101.99l0.81-3.23l8.08-5.17c-7.01,1.4-13.88,1.67-20.61,0.81c-6.74-0.86-12.8-2.77-18.19-5.74
				c-5.39-2.96-10-6.79-13.82-11.48c-3.83-4.69-6.28-10.11-7.36-16.25c-1.08-6.14-0.7-12.93,1.13-20.37
				c1.18-4.42,3.15-8.59,5.9-12.53c2.75-3.93,5.84-7.19,9.3-9.78c3.45-2.59,7.11-4.45,10.99-5.58c3.88-1.13,7.54-1.4,10.99-0.81
				c3.45,0.59,6.63,2.34,9.54,5.26c2.91,2.91,5.01,6.95,6.3,12.13c-8.73-2.59-15.63-0.75-20.69,5.5
				c-4.31,5.28-5.77,11.43-4.36,18.43c1.51,7.66,6.14,12.88,13.9,15.68c5.17,1.83,11.26,2.21,18.27,1.13
				c3.23-8.95,6.71-16.52,10.43-22.72c3.72-6.2,7.41-10.78,11.08-13.74c3.66-2.96,7.09-4.98,10.27-6.06
				c3.18-1.08,6.33-1.35,9.46-0.81c7.54,1.08,11.21,6.04,10.99,14.87c-0.32,9.16-4.15,18.86-11.48,29.1
				c-7.87,10.67-16.71,17.46-26.52,20.37c-0.65,2.7-1.86,7.9-3.64,15.6c-1.78,7.71-3.23,13.99-4.37,18.83
				c-1.13,4.85-2.53,10.43-4.2,16.73c-1.67,6.3-3.26,11.56-4.77,15.76c7.01,3.23,13.07,5.93,18.19,8.08
				c5.12,2.15,10.75,4.36,16.9,6.63c6.14,2.26,11.56,3.82,16.25,4.69c4.69,0.86,9.35,1.4,13.99,1.62c4.63,0.22,8.78-0.35,12.45-1.7
				c3.66-1.35,6.9-3.42,9.7-6.23c2.48,6.36,3.23,12.72,2.26,19.08c-0.97,6.36-3.56,11.64-7.76,15.84c-2.8,2.8-5.88,4.93-9.22,6.39
				c-3.34,1.46-6.77,2.16-10.27,2.1c-3.5-0.06-7.03-0.46-10.59-1.21c-3.56-0.76-7.25-2.08-11.08-3.96
				c-3.83-1.89-7.44-3.83-10.83-5.82c-3.4-1.99-6.95-4.34-10.67-7.03c-3.72-2.7-6.98-5.15-9.78-7.36c-2.8-2.21-5.85-4.58-9.14-7.11
				c-3.29-2.53-5.9-4.45-7.84-5.74c-9.27,14.87-19.56,21.34-30.88,19.4c-7.66-1.4-14.01-6.09-19.08-14.07
				c-5.07-7.87-6.68-15.36-4.85-22.47c2.05-8.3,8.46-12.66,19.24-13.1c5.6-0.22,12.18,0.81,19.72,3.07c0.75-1.4,1.51-2.96,2.26-4.69
				c0.75-1.72,1.43-3.42,2.02-5.09c0.59-1.67,1.29-3.64,2.1-5.9c0.81-2.26,1.48-4.28,2.02-6.06c0.54-1.78,1.19-3.93,1.94-6.47
				c0.75-2.53,1.37-4.61,1.86-6.22c0.48-1.62,1.1-3.77,1.86-6.47C74.07,105.44,74.66,103.39,75.09,101.99z"/>
			<path class="st45" d="M161.95,113.98c0.11-0.54,0.21-1,0.32-1.37c0.11-0.38,0.21-0.73,0.32-1.05c0.11-0.32,0.24-0.57,0.4-0.73
				s0.29-0.35,0.4-0.57c0.11-0.22,0.32-0.35,0.65-0.4c0.32-0.05,0.57-0.11,0.73-0.16c0.16-0.05,0.48-0.08,0.97-0.08s0.86,0,1.13,0
				c0.27,0,0.78,0,1.54,0c0.75,0,1.4,0,1.94,0c-1.19,4.74-2.7,11.1-4.53,19.08c-1.29,5.28-3.21,9.73-5.74,13.34
				c-2.53,3.61-5.28,6.06-8.25,7.36c-2.96,1.29-5.93,1.86-8.89,1.7c-2.96-0.16-5.61-1.13-7.92-2.91c-2.32-1.78-3.96-4.07-4.93-6.87
				c-5.39,6.25-11.32,9.38-17.78,9.38c-7.76,0-12.56-4.2-14.39-12.61c-1.83-8.41-0.48-17.68,4.04-27.81
				c4.63-10.02,10.67-16.33,18.11-18.92c2.16-0.75,4.26-1.13,6.31-1.13c5.28,0,9.27,2.1,11.96,6.31c1.83-3.99,4.61-6.31,8.33-6.95
				c3.72-0.65,7.84,0,12.37,1.94c-0.76,3.45-2.08,9.16-3.96,17.14c-1.89,7.98-3.37,14.23-4.45,18.75
				c-1.83,7.87-1.56,11.75,0.81,11.64c1.72-0.11,3.56-2.1,5.5-5.98c0.75-1.62,1.35-3.34,1.78-5.17
				C159.36,124.65,160.43,120.02,161.95,113.98z M121.85,135.81c2.59,0,5.39-3.88,8.41-11.64c3.45-8.73,4.63-15.41,3.56-20.05
				c-0.54-1.83-1.51-2.8-2.91-2.91c-3.34,0-6.36,4.26-9.05,12.77c-2.7,8.3-3.5,14.71-2.43,19.24
				C119.85,134.95,120.66,135.81,121.85,135.81z"/>
			<path class="st45" d="M165.83,97.98c-2.48-1.4-4.12-3.02-4.93-4.85c-0.81-1.83-0.92-3.56-0.32-5.17
				c0.59-1.62,1.59-3.07,2.99-4.36c1.29-1.08,2.69-1.7,4.2-1.86c1.51-0.16,2.88,0.14,4.12,0.89c1.24,0.76,2.15,1.92,2.75,3.48
				c0.59,1.56,0.57,3.64-0.08,6.23c-1.19,0-2.59-0.22-4.2-0.65c0.86,0.86,2.1,1.35,3.72,1.46c1.62,0.11,3.12-0.03,4.53-0.4
				c1.4-0.38,3.02-0.86,4.85-1.45c1.83-0.59,3.02-1,3.56-1.21c5.39-1.08,10.02,0.19,13.9,3.8c3.88,3.61,5.33,8.43,4.36,14.47
				c-0.22,1.83-0.59,3.86-1.13,6.06c-0.54,2.21-1.13,4.64-1.78,7.28c-0.65,2.64-1.13,4.66-1.45,6.06
				c-1.83,7.98-1.62,11.91,0.65,11.8c1.72-0.11,3.56-2.1,5.5-5.98c0.75-1.72,1.35-3.45,1.78-5.17c0.32-1.29,0.83-3.53,1.54-6.71
				c0.7-3.18,1.27-5.63,1.7-7.36c0.11-0.54,0.21-0.97,0.32-1.29c0.11-0.32,0.21-0.65,0.32-0.97c0.11-0.32,0.24-0.59,0.4-0.81
				c0.16-0.22,0.3-0.4,0.4-0.57c0.11-0.16,0.32-0.27,0.65-0.32c0.32-0.05,0.57-0.11,0.73-0.16c0.16-0.05,0.48-0.11,0.97-0.16
				c0.48-0.05,0.86-0.08,1.13-0.08c0.27,0,0.78,0.03,1.54,0.08c0.75,0.06,1.4,0.08,1.94,0.08c-1.83,7.76-3.34,14.12-4.53,19.08
				c-2.59,11.21-7.76,18.32-15.52,21.34c-5.82,2.15-11.05,1.4-15.68-2.26c-4.96-3.99-6.58-9.59-4.85-16.81
				c3.13-13.26,4.85-21.61,5.17-25.06c0.43-2.91,0.19-4.77-0.73-5.58c-0.92-0.81-2.37-1-4.36-0.57c-2,0.43-4.45,0.43-7.36,0
				c-1.51,6.04-2.75,10.99-3.72,14.87c-0.76,3.45-1.35,6.09-1.78,7.92c-0.43,1.62-1.43,2.83-2.99,3.64
				c-1.56,0.81-3.31,0.94-5.25,0.4c1.62-7.22,2.48-10.94,2.59-11.16C162.54,111.29,163.99,105.31,165.83,97.98z"/>
			<path class="st45" d="M248.93,110.1c-0.54,2.26-1.32,5.52-2.34,9.78c-1.03,4.26-1.75,7.36-2.18,9.3
				c-2.59,11.21-7.76,18.32-15.52,21.34c-5.82,2.15-11.05,1.4-15.68-2.26c-4.96-3.99-6.57-9.59-4.85-16.81
				c0.54-2.69,1.24-5.79,2.1-9.3c0.86-3.5,1.7-7.01,2.51-10.51c0.81-3.5,1.48-6.6,2.02-9.3c1.08-4.42,2.72-7.65,4.93-9.7
				c2.21-2.05,4.79-2.99,7.76-2.83c2.96,0.16,6.28,0.84,9.94,2.02c-1.4,5.93-4.15,17.89-8.25,35.89c-1.94,7.87-1.73,11.8,0.65,11.8
				c1.72-0.11,3.56-2.1,5.5-5.98c0.75-1.72,1.35-3.45,1.78-5.17c1.62-7.01,2.69-11.69,3.23-14.07c0.11-0.54,0.22-1,0.32-1.37
				c0.11-0.38,0.24-0.75,0.4-1.13c0.16-0.38,0.3-0.65,0.4-0.81c0.11-0.16,0.32-0.32,0.65-0.48c0.32-0.16,0.54-0.27,0.65-0.32
				c0.11-0.05,0.43-0.11,0.97-0.16c0.54-0.05,0.94-0.08,1.21-0.08c0.27,0,0.83,0.03,1.7,0.08
				C247.69,110.08,248.39,110.1,248.93,110.1z M230.33,68.71c2.59-0.75,5.01-0.59,7.28,0.48c2.26,1.08,3.74,2.78,4.45,5.09
				c0.7,2.32,0.38,4.56-0.97,6.71c-1.35,2.16-3.26,3.61-5.74,4.37c-1.83,0.43-3.53,0.51-5.09,0.24c-1.56-0.27-2.97-0.94-4.2-2.02
				c-1.24-1.08-2.08-2.37-2.51-3.88c-0.65-2.26-0.3-4.47,1.05-6.63C225.94,70.92,227.85,69.47,230.33,68.71z"/>
			<path class="st45" d="M291.61,128.54c-2.59,6.9-6.85,12.4-12.77,16.49c-5.93,4.1-12.88,6.2-20.86,6.31
				c-6.47,0.11-11.53-1.67-15.2-5.34c-3.67-3.66-5.66-8.16-5.98-13.5c-0.32-5.33,0.54-10.94,2.59-16.81
				c2.05-5.87,5.07-10.97,9.05-15.28c4.31-4.63,8.54-7.7,12.69-9.22c4.15-1.51,7.62-1.64,10.43-0.4c2.8,1.24,5.09,3.15,6.87,5.74
				c1.78,2.59,2.72,5.39,2.83,8.41c0.11,2.59-0.38,4.8-1.45,6.63c-1.08,1.83-2.37,2.97-3.88,3.39c-1.51,0.43-3.13,0.11-4.85-0.97
				c1.51-1.08,2.1-3.39,1.78-6.95c-0.11-3.45-1.13-5.01-3.07-4.69c-1.08,0.11-2.34,0.94-3.8,2.51c-1.46,1.56-2.62,3.31-3.48,5.25
				c-5.17,10.99-5.88,19.08-2.1,24.25c2.59,3.77,6.41,4.64,11.48,2.59c4.2-1.72,7.98-5.23,11.32-10.51
				c2.15-3.34,3.77-7.38,4.85-12.13c0.54-2.16,1.1-3.42,1.7-3.8c0.59-0.38,2.13-0.57,4.61-0.57c0.86,0.11,1.56,0.16,2.1,0.16
				C294.08,119.91,292.47,126.06,291.61,128.54z"/>
			<path class="st45" d="M340.27,105.09c-0.76,1.51-2.21,3.34-4.36,5.5c-1.08-2.8-3.88-4.66-8.41-5.58
				c-4.53-0.91-8.95-0.81-13.26,0.32c-4.31,1.13-6.74,2.83-7.28,5.09c-0.22,1.19,0.13,2.08,1.05,2.67c0.91,0.59,2.29,0.94,4.12,1.05
				c1.83,0.11,3.72,0.14,5.66,0.08c1.94-0.05,4.01,0,6.22,0.16c2.21,0.16,3.96,0.57,5.25,1.21c2.26,0.97,3.88,2.08,4.85,3.31
				c0.97,1.24,1.35,2.99,1.13,5.25c0,2.8,0.81,4.15,2.42,4.04c1.94-0.21,3.61-1.78,5.01-4.69l0.97-2.59
				c0.22-1.08,0.38-1.86,0.48-2.34c0.11-0.48,0.16-0.78,0.16-0.89c0-0.11,0.08-0.43,0.24-0.97c0.16-0.54,0.35-1.35,0.57-2.42
				c0.11-0.54,0.21-0.97,0.32-1.29c0.11-0.32,0.21-0.65,0.32-0.97c0.11-0.32,0.24-0.59,0.4-0.81c0.16-0.22,0.3-0.4,0.4-0.57
				c0.11-0.16,0.32-0.27,0.65-0.32c0.32-0.05,0.57-0.11,0.73-0.16c0.16-0.05,0.48-0.11,0.97-0.16c0.48-0.05,0.86-0.08,1.13-0.08
				c0.27,0,0.78,0.03,1.54,0.08c0.75,0.06,1.4,0.08,1.94,0.08c-0.32,1.29-0.62,2.45-0.89,3.48c-0.27,1.03-0.46,1.78-0.57,2.26
				c-0.11,0.48-0.27,1.21-0.48,2.18c-0.22,0.97-0.48,2.21-0.81,3.72c-1.4,5.5-3.88,9.49-7.44,11.96c-2.26,1.83-4.85,2.64-7.76,2.42
				c-2.91-0.21-5.12-1.62-6.63-4.2c0.65,2.37,1.29,3.94,1.94,4.69c-1.94,2.59-3.42,4.47-4.45,5.66c-1.03,1.19-2.83,2.67-5.42,4.45
				c-2.59,1.78-5.61,3.26-9.05,4.45c-7.44,2.59-12.85,2.24-16.25-1.05c-3.4-3.29-4.28-7.44-2.67-12.45s4.9-8.33,9.86-9.94
				c0.32,2.26,1.37,3.91,3.15,4.93c1.78,1.03,3.64,1.4,5.58,1.13c1.94-0.27,3.74-0.97,5.42-2.1c1.67-1.13,2.72-2.51,3.15-4.12
				c0.32-1.51-0.08-2.53-1.21-3.07c-1.13-0.54-2.8-0.78-5.01-0.73c-2.21,0.06-4.58,0.14-7.11,0.24c-2.53,0.11-5.2-0.11-8-0.65
				c-2.8-0.54-5.12-1.51-6.95-2.91c-2.8-2.26-4.02-5.01-3.64-8.25c0.38-3.23,1.75-6.44,4.12-9.62c2.37-3.18,5.23-5.9,8.57-8.16
				c8.19-5.28,16.87-7.76,26.03-7.44c8.19,0.32,13.04,3.02,14.55,8.08C342.32,97.98,341.89,101.32,340.27,105.09z"/>
		</g>
	</g>
	<path class="st42" d="M56.33,168.23c-0.36-2.49-7.59-5.09-13.51-2.25c-5.57,2.67-8.36,9.36-6.76,11.26
		C38.81,180.52,56.94,172.41,56.33,168.23z"/>
	<path class="st42" d="M99.12,62.37c-1.81-1.25,2.06-13.31,11.26-20.27c4.06-3.07,10.11-5.87,11.26-4.5
		c1.67,1.99-7.49,12.29-13.51,18.02C103.57,59.95,100.22,63.14,99.12,62.37z"/>
	<path class="st42" d="M126.15,199.76c0.63-1.49,11.2,5.76,22.52,2.25c12.96-4.02,17.61-19.26,20.27-18.02
		c1.75,0.82,0.99,8.01-2.25,13.51c-4.8,8.14-14.5,11.65-22.52,11.26C133.73,208.26,125.58,201.11,126.15,199.76z"/>
	<path class="st42" d="M245.51,138.95c0.4-0.58,5.34,4.43,13.51,4.5c3.63,0.03,6.33-0.93,6.76,0c0.46,0.98-1.84,3.63-4.5,4.5
		C254.14,150.31,244.96,139.76,245.51,138.95z"/>
</g>
</svg>
